# xmcd
#
# Track frame offsets:
#	150
#	95012
#	203787
#
# Disc length: 3187 seconds
#
# Revision: 1
# Processed by: cddbd v1.5.1PL0 Copyright (c) Steve Scherf et al.
# Submitted via: CDex 1.50Beta5
#
DISCID=220c7103
DTITLE=Leonard Bernstein - Bernstein Conducts HIS OWN Works [CD3]
DYEAR=1963
DGENRE=Classical
TTITLE0=シンフォニック・ダンス「ウェストサイド物語」
TTITLE1=バレエ音楽「ファンシー・フリー」
TTITLE2=プレリュード、フーガとリフ
EXTD=
EXTT0=
EXTT1=
EXTT2=
PLAYORDER=
